<svg width="86" height="91" viewBox="0 0 86 91" fill="none" xmlns="http://www.w3.org/2000/svg">
<path d="M26.6425 51.9754H23.7769C23.7769 52.7737 24.0788 53.5393 24.6162 54.1038C25.1536 54.6683 25.8825 54.9854 26.6425 54.9854V51.9754ZM49.5669 51.9754V54.9854C50.3269 54.9854 51.0557 54.6683 51.5931 54.1038C52.1305 53.5393 52.4324 52.7737 52.4324 51.9754H49.5669ZM49.5669 36.9253H52.4324C52.4331 36.5297 52.3595 36.1379 52.216 35.7722C52.0724 35.4066 51.8616 35.0742 51.5957 34.7942L49.5669 36.9253ZM38.1047 24.8851L40.1335 22.754C39.8673 22.4737 39.5511 22.2513 39.2029 22.0996C38.8548 21.9478 38.4816 21.8697 38.1047 21.8697C37.7278 21.8697 37.3545 21.9478 37.0064 22.0996C36.6583 22.2513 36.3421 22.4737 36.0759 22.754L38.1047 24.8851ZM26.6425 36.9253L24.6137 34.7942C24.3477 35.0742 24.137 35.4066 23.9934 35.7722C23.8498 36.1379 23.7763 36.5297 23.7769 36.9253H26.6425ZM85.9823 85.9646L63.0579 61.8844L59.0003 66.1466L81.9247 90.2268L85.9823 85.9646ZM38.1047 73.0456C29.7448 73.0456 21.7273 69.5572 15.8159 63.3478C9.9046 57.1384 6.58364 48.7167 6.58364 39.9353H0.852539C0.852539 50.3133 4.77731 60.2663 11.7634 67.6046C18.7496 74.943 28.2248 79.0656 38.1047 79.0656V73.0456ZM69.6257 39.9353C69.6257 48.7167 66.3048 57.1384 60.3934 63.3478C54.4821 69.5572 46.4646 73.0456 38.1047 73.0456V79.0656C47.9846 79.0656 57.4598 74.943 64.4459 67.6046C71.4321 60.2663 75.3568 50.3133 75.3568 39.9353H69.6257ZM38.1047 6.82499C46.4646 6.82499 54.4821 10.3134 60.3934 16.5228C66.3048 22.7322 69.6257 31.1539 69.6257 39.9353H75.3568C75.3568 29.5573 71.4321 19.6043 64.4459 12.2659C57.4598 4.92758 47.9846 0.804932 38.1047 0.804932V6.82499ZM38.1047 0.804932C28.2248 0.804932 18.7496 4.92758 11.7634 12.2659C4.77731 19.6043 0.852539 29.5573 0.852539 39.9353H6.58364C6.58364 31.1539 9.9046 22.7322 15.8159 16.5228C21.7273 10.3134 29.7448 6.82499 38.1047 6.82499V0.804932ZM26.6425 54.9854H49.5669V48.9654H26.6425V54.9854ZM52.4324 51.9754V36.9253H46.7013V51.9754H52.4324ZM51.5957 34.7942L40.1335 22.754L36.0759 27.0162L47.5381 39.0564L51.5957 34.7942ZM36.0759 22.754L24.6137 34.7942L28.6713 39.0564L40.1335 27.0162L36.0759 22.754ZM23.7769 36.9253V51.9754H29.508V36.9253H23.7769Z" fill="black"/>
</svg>
